<?xml version="1.0" encoding="UTF-8" standalone="no"?>
<!-- Created with Inkscape (http://www.inkscape.org/) -->

<svg
   width="135.46666mm"
   height="135.46666mm"
   viewBox="0 0 135.46666 135.46666"
   version="1.1"
   id="svg1"
   xml:space="preserve"
   inkscape:version="1.3 (0e150ed6c4, 2023-07-21)"
   sodipodi:docname="iconeInsta.svg"
   xmlns:inkscape="http://www.inkscape.org/namespaces/inkscape"
   xmlns:sodipodi="http://sodipodi.sourceforge.net/DTD/sodipodi-0.dtd"
   xmlns="http://www.w3.org/2000/svg"
   xmlns:svg="http://www.w3.org/2000/svg"><sodipodi:namedview
     id="namedview1"
     pagecolor="#ffffff"
     bordercolor="#000000"
     borderopacity="0.25"
     inkscape:showpageshadow="2"
     inkscape:pageopacity="0.0"
     inkscape:pagecheckerboard="0"
     inkscape:deskcolor="#d1d1d1"
     inkscape:document-units="mm"
     inkscape:zoom="0.73139029"
     inkscape:cx="588.60502"
     inkscape:cy="462.81719"
     inkscape:window-width="1920"
     inkscape:window-height="1017"
     inkscape:window-x="1272"
     inkscape:window-y="-8"
     inkscape:window-maximized="1"
     inkscape:current-layer="layer1" /><defs
     id="defs1" /><g
     inkscape:label="Camada 1"
     inkscape:groupmode="layer"
     id="layer1"
     transform="translate(-17.640604,-25.960945)"><path
       style="fill:#000000;stroke-width:0.913868"
       d="m 74.400569,151.79618 c -0.440477,-0.84039 -2.45727,-12.7057 -4.481763,-26.36734 C 67.894303,111.76718 66.020524,99.889056 65.754842,99.032995 65.489159,98.176924 55.328921,91.165384 43.176528,83.451789 31.024126,75.738182 20.627444,68.729405 20.072773,67.87673 17.305034,63.622018 19.09723,63.179814 84.00516,52.101764 c 64.08203,-10.937083 65.69129,-11.103405 65.62257,-6.782214 -0.0308,1.933675 -69.294953,107.29996 -70.942541,107.91941 -1.988629,0.74766 -3.382575,0.27828 -4.28462,-1.44278 z M 105.33857,100.2468 c 13.32364,-20.34263 24.84324,-37.970494 25.59913,-39.173024 0.75587,-1.202532 -11.85234,6.464865 -28.01826,17.038671 l -29.392562,19.225083 2.97953,20.51407 c 1.638738,11.28276 3.345788,20.25934 3.793439,19.94796 0.447641,-0.31139 11.71506,-17.21014 25.038723,-37.55276 z M 99.003391,71.602697 C 115.03289,61.074213 127.00275,52.632452 125.60308,52.843223 112.86573,54.761304 35.989787,68.048171 35.350115,68.442115 34.620066,68.89172 66.489685,89.82083 68.919857,90.487711 69.436311,90.629418 82.973909,82.131176 99.003391,71.602697 Z"
       id="path1"
       inkscape:transform-center-x="-3.3117721"
       inkscape:transform-center-y="10.131219" /></g></svg>
